<?xml version="1.0" standalone="no"?>
<!DOCTYPE svg PUBLIC "-//W3C//DTD SVG 20010904//EN"
 "http://www.w3.org/TR/2001/REC-SVG-20010904/DTD/svg10.dtd">
<svg version="1.0" xmlns="http://www.w3.org/2000/svg"
 width="720.000000pt" height="1280.000000pt" viewBox="0 0 720.000000 1280.000000"
 preserveAspectRatio="xMidYMid meet">

<g transform="translate(0.000000,1280.000000) scale(0.100000,-0.100000)"
fill="#000000" stroke="none">
<path d="M0 6400 l0 -6400 3600 0 3600 0 0 6400 0 6400 -3600 0 -3600 0 0
-6400z m2906 573 c-13 -69 -15 -73 -51 -73 -24 0 -38 -6 -45 -19 -20 -39 -13
-51 31 -51 34 0 40 -3 35 -17 -3 -10 -8 -30 -11 -45 -6 -23 -13 -27 -48 -30
-36 -3 -42 -6 -48 -33 -4 -16 -31 -135 -60 -262 l-52 -233 -64 0 c-34 0 -63 1
-63 3 0 6 111 492 116 510 4 14 -1 17 -30 17 -40 0 -40 0 -25 53 9 33 13 37
43 37 30 0 33 3 45 51 23 90 75 127 180 128 l53 1 -6 -37z m-312 -10 c-14 -79
-18 -83 -78 -83 -30 0 -57 3 -59 8 -3 4 0 31 5 60 l11 52 64 0 64 0 -7 -37z
m1836 -128 c0 -7 -5 -37 -11 -65 -10 -48 -12 -50 -45 -50 -53 0 -101 -24 -120
-61 -16 -32 -23 -58 -59 -221 l-16 -78 -65 0 c-62 0 -64 1 -59 23 11 48 95
448 95 452 0 3 28 5 61 5 l62 0 -6 -37 -6 -36 27 26 c49 47 142 75 142 42z
m342 -12 c49 -29 73 -77 73 -148 -1 -33 -4 -72 -8 -87 l-7 -28 -163 -2 -162
-3 2 -35 c3 -69 78 -92 147 -45 29 20 49 25 96 25 33 0 60 -4 60 -8 0 -21 -75
-93 -122 -116 -102 -51 -242 -28 -289 47 -31 49 -23 183 15 260 33 68 102 132
165 152 58 19 150 13 193 -12z m-2212 -5 c0 -7 -21 -113 -46 -235 l-47 -223
-64 0 c-34 0 -63 2 -63 5 0 8 91 439 95 453 3 8 25 12 65 12 41 0 60 -4 60
-12z m786 -5 c-3 -10 -17 -70 -30 -133 -31 -141 -49 -194 -82 -237 -109 -143
-332 -121 -374 37 -10 36 -7 63 21 196 l32 154 219 0 c204 0 219 -1 214 -17z
m221 -10 c-3 -16 -8 -45 -12 -65 l-7 -38 37 0 c37 0 37 -1 31 -31 -3 -17 -6
-37 -6 -45 0 -8 -16 -14 -42 -16 l-43 -3 -27 -125 c-36 -164 -36 -160 8 -160
35 0 35 -1 29 -32 -14 -70 -11 -68 -81 -68 -127 0 -135 17 -94 208 17 81 33
155 36 164 4 13 -3 17 -28 20 l-34 3 9 43 c8 39 10 42 42 42 33 0 34 1 45 58
7 31 14 60 17 65 2 4 31 7 65 7 l61 0 -6 -27z m543 17 c0 -18 -59 -277 -70
-305 -20 -53 -72 -113 -122 -140 -134 -73 -297 4 -298 142 0 35 38 237 56 296
5 15 24 17 220 17 137 0 214 -4 214 -10z m-140 -632 c0 -26 -49 -336 -56 -358
-3 -9 -14 1 -30 30 -14 25 -32 55 -40 68 l-15 22 -45 -31 c-193 -133 -469
-157 -656 -57 -77 41 -166 137 -212 229 -43 86 -47 119 -9 69 117 -151 297
-229 461 -200 105 18 246 82 330 148 l23 18 -45 32 c-25 18 -48 37 -51 42 -4
6 59 10 169 10 175 0 176 0 176 -22z"/>
<path d="M4572 6715 c-16 -14 -32 -34 -35 -45 -5 -19 0 -20 90 -20 l96 0 -7
33 c-3 17 -14 38 -23 45 -29 21 -88 15 -121 -13z"/>
</g>
</svg>
